<svg xmlns="http://www.w3.org/2000/svg" viewBox="0 0 64 64" fill="none">
  <rect width="64" height="64" rx="14" fill="#F5F3FF"/>
  <rect x="14" y="10" width="36" height="46" rx="8" fill="#FFFFFF" stroke="#7C3AED" stroke-width="3"/>
  <!-- Display Screen -->
  <rect x="20" y="16" width="24" height="10" rx="3" fill="#EDE9FE" stroke="#A78BFA" stroke-width="1.5"/>
  <path d="M37 21H41M25 21L27 21" stroke="#5B21B6" stroke-width="2" stroke-linecap="round"/>
  <!-- Scientific function keys -->
  <rect x="20" y="30" width="6" height="5" rx="1.5" fill="#8B5CF6"/>
  <rect x="29" y="30" width="6" height="5" rx="1.5" fill="#8B5CF6"/>
  <rect x="38" y="30" width="6" height="5" rx="1.5" fill="#6D28D9"/>
  <!-- Number keys -->
  <rect x="20" y="38" width="6" height="5" rx="1.5" fill="#E9D5FF"/>
  <rect x="29" y="38" width="6" height="5" rx="1.5" fill="#E9D5FF"/>
  <rect x="38" y="38" width="6" height="5" rx="1.5" fill="#C4B5FD"/>
  <rect x="20" y="46" width="6" height="5" rx="1.5" fill="#E9D5FF"/>
  <rect x="29" y="46" width="6" height="5" rx="1.5" fill="#E9D5FF"/>
  <rect x="38" y="46" width="6" height="5" rx="1.5" fill="#7C3AED"/>
</svg>
